<?xml version="1.0" encoding="utf-8"?>
<!-- Generator: Adobe Illustrator 23.0.4, SVG Export Plug-In . SVG Version: 6.00 Build 0)  -->
<svg version="1.1" id="Layer_1" xmlns="http://www.w3.org/2000/svg" xmlns:xlink="http://www.w3.org/1999/xlink" x="0px" y="0px"
	 viewBox="0 0 231 230" style="enable-background:new 0 0 231 230;" xml:space="preserve">
<g id="card" transform="translate(0.25 0.25)">
	<g id="Path_81">
		<path d="M172.3,68.4H58.2c-6.6,0-11.9,5.3-11.9,11.9v68.8c0,6.6,5.3,11.9,11.9,11.9h114.1c6.6,0,11.9-5.3,11.9-11.9V80.4
			C184.2,73.8,178.9,68.4,172.3,68.4z M180.2,149.1c0,4.3-3.5,7.8-7.8,7.8H58.2c-4.3,0-7.8-3.5-7.8-7.8V80.4c0-4.3,3.5-7.8,7.8-7.8
			h114.1c4.3,0,7.8,3.5,7.8,7.8V149.1z"/>
		<path d="M172.3,161.3H58.2c-6.7,0-12.2-5.5-12.2-12.2V80.4c0-6.7,5.5-12.2,12.2-12.2h114.1c6.7,0,12.2,5.5,12.2,12.2v68.8
			C184.5,155.8,179,161.3,172.3,161.3z M58.2,68.7c-6.4,0-11.7,5.2-11.7,11.7v68.8c0,6.4,5.2,11.7,11.7,11.7h114.1
			c6.4,0,11.7-5.2,11.7-11.7V80.4c0-6.4-5.2-11.7-11.7-11.7H58.2z M172.3,157.2H58.2c-4.4,0-8.1-3.6-8.1-8.1V80.4
			c0-4.4,3.6-8.1,8.1-8.1h114.1c4.4,0,8.1,3.6,8.1,8.1v68.8C180.4,153.6,176.8,157.2,172.3,157.2z M58.2,72.8
			c-4.2,0-7.6,3.4-7.6,7.6v68.8c0,4.2,3.4,7.6,7.6,7.6h114.1c4.2,0,7.6-3.4,7.6-7.6V80.4c0-4.2-3.4-7.6-7.6-7.6H58.2z"/>
	</g>
	<g id="Path_82">
		<path d="M107.6,84.8H60c-1.1,0-2,0.9-2,2v4.9c0,1.1,0.9,2,2,2c1.1,0,2-0.9,2-2v-2.9h43.4v50H62.1V100c0-1.1-0.9-2-2-2
			c-1.1,0-2,0.9-2,2v41c0,1.1,0.9,2,2,2h47.5c1.1,0,2-0.9,2-2V86.9C109.6,85.7,108.7,84.8,107.6,84.8
			C107.6,84.8,107.6,84.8,107.6,84.8z"/>
		<path d="M107.6,143.3H60c-1.3,0-2.3-1-2.3-2.3v-41c0-1.3,1-2.3,2.3-2.3s2.3,1,2.3,2.3v38.7h42.9V89.1H62.4v2.6
			c0,1.3-1,2.3-2.3,2.3s-2.3-1-2.3-2.3v-4.9c0-1.3,1-2.3,2.3-2.3h47.6c0.6,0,1.2,0.2,1.6,0.7c0.4,0.4,0.7,1,0.7,1.6V141
			C109.9,142.2,108.9,143.3,107.6,143.3z M60.1,98.2c-1,0-1.8,0.8-1.8,1.8v41c0,1,0.8,1.8,1.8,1.8h47.5c1,0,1.8-0.8,1.8-1.8V86.9
			c0-1-0.8-1.8-1.8-1.8l0-0.2v0.2H60c-1,0-1.8,0.8-1.8,1.8v4.9c0,1,0.8,1.8,1.8,1.8s1.8-0.8,1.8-1.8v-3.1h43.9v50.5H61.9V100
			C61.9,99,61,98.2,60.1,98.2z"/>
	</g>
	<g id="Path_83">
		<path d="M171,89.6h-51.4c-1.1,0-2.1,0.9-2.1,2c0,1.1,0.9,2,2.1,2H171c1.1,0,2.1-0.9,2.1-2C173.1,90.5,172.1,89.6,171,89.6
			L171,89.6z"/>
		<path d="M171,93.9h-51.4c-1.3,0-2.3-1-2.3-2.3c0-1.3,1-2.3,2.3-2.3H171c1.3,0,2.3,1,2.3,2.3C173.3,92.9,172.3,93.9,171,93.9z
			 M119.6,89.8c-1,0-1.8,0.8-1.8,1.8c0,1,0.8,1.8,1.8,1.8H171c1,0,1.8-0.8,1.8-1.8c0-1-0.8-1.8-1.8-1.8H119.6z"/>
	</g>
	<g id="Path_84">
		<path d="M171,104.4h-11.5c-1.1,0-2.1,0.9-2.1,2.1c0,1.1,0.9,2,2.1,2H171c1.1,0,2.1-0.9,2.1-2C173.1,105.4,172.1,104.4,171,104.4z"
			/>
		<path d="M171,108.8h-11.5c-1.3,0-2.3-1-2.3-2.3s1-2.3,2.3-2.3H171c1.3,0,2.3,1,2.3,2.3S172.3,108.8,171,108.8z M159.5,104.7
			c-1,0-1.8,0.8-1.8,1.8s0.8,1.8,1.8,1.8H171c1,0,1.8-0.8,1.8-1.8s-0.8-1.8-1.8-1.8H159.5z"/>
	</g>
	<g id="Path_85">
		<path d="M119.6,108.5h31.7c1.1,0,2.1-0.9,2.1-2c0-1.1-0.9-2.1-2.1-2.1h-31.7c-1.1,0-2.1,0.9-2.1,2.1
			C117.6,107.6,118.5,108.5,119.6,108.5L119.6,108.5z"/>
		<path d="M151.3,108.8h-31.7c-1.3,0-2.3-1-2.3-2.3s1-2.3,2.3-2.3h31.7c1.3,0,2.3,1,2.3,2.3S152.6,108.8,151.3,108.8z M119.6,104.7
			c-1,0-1.8,0.8-1.8,1.8s0.8,1.8,1.8,1.8h31.7c1,0,1.8-0.8,1.8-1.8s-0.8-1.8-1.8-1.8H119.6z"/>
	</g>
	<g id="Path_86">
		<path d="M171,119.3h-51.4c-1.1,0-2.1,0.9-2.1,2.1c0,1.1,0.9,2,2.1,2H171c1.1,0,2.1-0.9,2.1-2C173.1,120.2,172.1,119.3,171,119.3
			L171,119.3z"/>
		<path d="M171,123.7h-51.4c-1.3,0-2.3-1-2.3-2.3s1-2.3,2.3-2.3H171c1.3,0,2.3,1,2.3,2.3S172.3,123.7,171,123.7z M119.6,119.6
			c-1,0-1.8,0.8-1.8,1.8c0,1,0.8,1.8,1.8,1.8H171c1,0,1.8-0.8,1.8-1.8c0-1-0.8-1.8-1.8-1.8H119.6z"/>
	</g>
	<g id="Path_87">
		<path d="M147.5,134.2h-27.9c-1.1,0-2.1,0.9-2.1,2c0,1.1,0.9,2.1,2.1,2.1h27.9c1.1,0,2.1-0.9,2.1-2.1
			C149.5,135.1,148.6,134.2,147.5,134.2z"/>
		<path d="M147.5,138.5h-27.9c-1.3,0-2.3-1-2.3-2.3s1-2.3,2.3-2.3h27.9c1.3,0,2.3,1,2.3,2.3S148.8,138.5,147.5,138.5z M119.6,134.4
			c-1,0-1.8,0.8-1.8,1.8s0.8,1.8,1.8,1.8h27.9c1,0,1.8-0.8,1.8-1.8s-0.8-1.8-1.8-1.8H119.6z"/>
	</g>
	<g id="Path_88">
		<path d="M69.5,134.4c0,1.1,0.9,2,2,2c1.1,0,2-0.9,2-2c0-5.7,4.6-10.2,10.2-10.2s10.2,4.6,10.2,10.2c0,0,0,0,0,0c0,1.1,0.9,2,2,2
			c1.1,0,2-0.9,2-2c0-5-2.6-9.7-7-12.3c6.8-4.1,9-12.9,4.9-19.7c-4.1-6.8-12.9-9-19.7-4.9c-6.8,4.1-9,12.9-4.9,19.7
			c1.2,2,2.9,3.7,4.9,4.9C72.1,124.7,69.5,129.4,69.5,134.4z M73.6,109.8c0-5.7,4.6-10.2,10.2-10.2c5.7,0,10.2,4.6,10.2,10.2
			c0,5.7-4.6,10.2-10.2,10.2C78.2,120.1,73.6,115.5,73.6,109.8C73.6,109.8,73.6,109.8,73.6,109.8L73.6,109.8z"/>
		<path d="M96.1,136.7c-1.3,0-2.3-1-2.3-2.3c0-5.5-4.5-10-10-10c0,0,0,0,0,0c-2.7,0-5.2,1-7.1,2.9c-1.9,1.9-2.9,4.4-2.9,7.1
			c0,1.3-1,2.3-2.3,2.3c-1.3,0-2.3-1-2.3-2.3c0-5,2.6-9.6,6.7-12.3c-1.9-1.2-3.5-2.9-4.7-4.8c-2-3.3-2.6-7.3-1.6-11.1
			c0.9-3.8,3.3-7,6.7-9c3.3-2,7.3-2.6,11.1-1.6c3.8,0.9,7,3.3,9,6.7c4.1,6.8,2,15.6-4.7,19.8c4.2,2.7,6.7,7.3,6.7,12.3
			C98.4,135.7,97.4,136.7,96.1,136.7z M83.8,123.9c5.8,0,10.5,4.7,10.5,10.5c0,1,0.8,1.8,1.8,1.8c1,0,1.8-0.8,1.8-1.8
			c0-4.9-2.6-9.5-6.8-12.1l-0.4-0.2l0.4-0.2c6.7-4,8.8-12.7,4.8-19.3c-1.9-3.2-5-5.5-8.7-6.4c-3.7-0.9-7.4-0.4-10.7,1.6
			c-3.2,1.9-5.5,5-6.4,8.7c-0.9,3.7-0.3,7.4,1.6,10.7c1.2,2,2.9,3.7,4.8,4.8l0.4,0.2l-0.4,0.2c-4.2,2.5-6.8,7.2-6.8,12.1
			c0,1,0.8,1.8,1.8,1.8c1,0,1.8-0.8,1.8-1.8c0-2.8,1.1-5.4,3.1-7.4C78.4,125,81,123.9,83.8,123.9C83.8,123.9,83.8,123.9,83.8,123.9z
			 M83.8,120.3c-2.8,0-5.4-1.1-7.4-3.1c-2-2-3.1-4.6-3.1-7.4l0-0.2c0.1-5.7,4.8-10.2,10.5-10.2c5.8,0,10.5,4.7,10.5,10.5
			C94.3,115.6,89.6,120.3,83.8,120.3C83.8,120.3,83.8,120.3,83.8,120.3z M73.8,110.1c0.1,2.6,1.1,5,2.9,6.8c1.9,1.9,4.4,2.9,7.1,2.9
			c0,0,0,0,0,0c5.5,0,10-4.5,10-10c0-5.5-4.5-10-10-10c-5.5,0-10,4.5-10,10L73.8,110.1z"/>
	</g>
</g>
</svg>
