<?xml version="1.0" encoding="utf-8"?>
<!-- Generator: Adobe Illustrator 23.0.6, SVG Export Plug-In . SVG Version: 6.00 Build 0) -->
<svg version="1.1" xmlns="http://www.w3.org/2000/svg" xmlns:xlink="http://www.w3.org/1999/xlink" x="0px" y="0px" viewBox="0 0 377.8 512" style="enable-background:new 0 0 377.8 512;" xml:space="preserve">
	<style type="text/css">
		.st0{fill:#FFFFFF;}
	</style>
	<g id="Layer_1">
		<g>
			<g>
				<path d="M371.6,186.5c0,124.7-163.1,307.8-170.1,315.6c-6.5,7.3-17.9,7.3-24.4,0c-7-7.8-170.1-190.8-170.1-315.6
				C7.1,85.9,88.9,4.2,189.3,4.2S371.6,85.9,371.6,186.5z" />
			</g>
		</g>
	</g>
	<g id="Layer_2">
		<path class="st0" d="M290.5,126.5c0,15.3-12.4,27.7-27.7,27.7c-4.5,0-8.8-1.1-12.5-3l-31.1,27.4v130.2h-0.5l0,0L199.3,320
		c0,0.2,0,0.4,0,0.7c0,15.3-12.4,27.7-27.8,27.7c-15.3,0-27.7-12.4-27.7-27.7c0-15.3,12.4-27.8,27.7-27.8c7.9,0,15,3.3,20.1,8.6
		l7.7-4.4v-127h0.1l-0.3-0.3l37.7-33.2c-1.2-3.1-1.9-6.5-1.9-10.1c0-15.3,12.4-27.8,27.7-27.8S290.5,111.2,290.5,126.5z" />
		<path class="st0" d="M177.4,61v210.1h-44.8c-3.4,11.5-14,19.8-26.6,19.8c-15.3,0-27.8-12.4-27.8-27.8c0-15.3,12.4-27.7,27.8-27.7
		c11.1,0,20.6,6.5,25.1,15.8h26.5V61H177.4z" />
		<path class="st0" d="M133.7,189.8c0,15.3-12.4,27.7-27.7,27.7c-11.5,0-21.3-6.9-25.5-16.9H26.7v-19.8h53
		c3.7-10.9,14.1-18.8,26.3-18.8C121.3,162.1,133.7,174.5,133.7,189.8z" />
		<path class="st0" d="M345.1,197.8c0,15.3-12.4,27.7-27.7,27.7c-11.8,0-21.9-7.4-25.9-17.8h-25.6V398H246V187.9h45.4
		c4-10.4,14.1-17.8,25.9-17.8C332.6,170.1,345.1,182.5,345.1,197.8z" />
	</g>
</svg>
