<?xml version="1.0" encoding="utf-8"?>
<!-- Generator: Adobe Illustrator 23.0.4, SVG Export Plug-In . SVG Version: 6.00 Build 0)  -->
<svg version="1.1" id="Layer_1" xmlns="http://www.w3.org/2000/svg" xmlns:xlink="http://www.w3.org/1999/xlink" x="0px" y="0px"
	 viewBox="0 0 231 230" style="enable-background:new 0 0 231 230;" xml:space="preserve">
<g id="XMLID_303_">
	<path d="M70.1,165c4.4,4.3,6.9,10.1,7.1,16.3c0,1.5-1.1,2.7-2.6,2.7h-0.1c-1.5,0-2.6-1.2-2.7-2.6c-0.3-9.8-8.3-17.7-18.2-17.8H53
		c-1.5-0.1-2.6-1.4-2.5-2.9c0.1-1.3,1.1-2.3,2.3-2.5c0.2,0,0.5,0,0.7,0C59.8,158.2,65.7,160.7,70.1,165z M51,69.9h66.3
		c1.5,0,2.7-1.2,2.7-2.7s-1.2-2.7-2.7-2.7l0,0H51c-1.5,0-2.7,1.2-2.7,2.7C48.3,68.7,49.5,69.9,51,69.9z M112.7,88.9
		c1.5,0,2.7-1.2,2.7-2.7s-1.2-2.7-2.7-2.7l0,0H51c-1.5,0-2.7,1.2-2.7,2.7s1.2,2.7,2.7,2.7l0,0H112.7z M158.9,72.8
		c1.5,0,2.7-1.2,2.7-2.7l0,0v-0.6c0-1.5-1.2-2.7-2.7-2.7s-2.7,1.2-2.7,2.7v0.6C156.3,71.6,157.5,72.8,158.9,72.8L158.9,72.8z
		 M135.6,79.1c-1.5,0-2.7,1.2-2.7,2.7l0,0v0.6c0,1.5,1.2,2.7,2.7,2.7s2.7-1.2,2.7-2.7l0,0v-0.6C138.3,80.3,137.1,79.1,135.6,79.1z
		 M50.3,105.2c0-1.5,1.2-2.7,2.7-2.7h88.4c1.7-1.7,3.8-2.9,6.2-3.4v-5.3c-1.7-0.4-3.3-1.1-4.7-2.2c-5.3,4.1-13,3-17-2.3
		c-4.1-5.3-3-13,2.3-17c0.4-0.3,0.8-0.6,1.3-0.8c-1.1-6.2,2.6-12.2,8.7-13.9c0.4-6.7,6.1-11.8,12.8-11.5c6.2,0.3,11.2,5.3,11.5,11.5
		c6.1,1.7,9.8,7.7,8.7,13.9c5.8,3.4,7.8,10.8,4.4,16.6c-3.4,5.8-10.8,7.8-16.6,4.4c-0.4-0.3-0.9-0.5-1.3-0.8c-1.4,1.1-3,1.8-4.7,2.2
		v5.3c2.3,0.5,4.5,1.7,6.2,3.4H180c1.5,0,2.7,1.2,2.7,2.7s-1.2,2.7-2.7,2.7l0,0h-22.1c-0.8,0-1.6-0.4-2.1-1c-2.5-3.1-7-3.6-10.1-1.1
		c-0.4,0.3-0.8,0.7-1.1,1.1c-0.5,0.6-1.3,1-2.1,1H53C51.5,107.9,50.3,106.7,50.3,105.2L50.3,105.2z M147.6,88.2v-8.1
		c0-1.5,1.2-2.7,2.7-2.7s2.7,1.2,2.7,2.7v8.1c1-0.4,1.9-1.1,2.6-2c0.9-1.1,2.6-1.3,3.8-0.4c0.1,0.1,0.3,0.2,0.4,0.4
		c2.3,2.9,6.6,3.4,9.5,1c2.9-2.3,3.4-6.6,1-9.5c-0.8-1-2-1.8-3.3-2.2c-1.4-0.4-2.2-1.9-1.8-3.4c0-0.1,0.1-0.2,0.1-0.2
		c1.5-3.5-0.2-7.4-3.6-8.9c-0.7-0.3-1.5-0.5-2.3-0.5c-1.5-0.1-2.6-1.3-2.5-2.8c0-0.1,0-0.2,0-0.3c0.1-0.4,0.1-0.8,0.1-1.1
		c0-3.7-3-6.8-6.8-6.8s-6.8,3-6.8,6.8c0,0.4,0,0.8,0.1,1.2c0.2,1.5-0.7,2.8-2.2,3.1c-0.1,0-0.2,0-0.3,0c-3.7,0.2-6.6,3.4-6.4,7.1
		c0,0.8,0.2,1.6,0.5,2.3c0.6,1.4-0.1,2.9-1.4,3.5c-0.1,0-0.2,0.1-0.2,0.1c-3.6,1.1-5.6,4.9-4.4,8.5c1.1,3.6,4.9,5.6,8.5,4.4
		c1.3-0.4,2.4-1.2,3.3-2.2c0.9-1.1,2.6-1.3,3.8-0.4c0.1,0.1,0.3,0.2,0.4,0.4C145.7,87.1,146.6,87.7,147.6,88.2L147.6,88.2z
		 M180,140.6h-59.5c-1.5,0-2.7,1.2-2.7,2.7s1.2,2.7,2.7,2.7H180c1.5,0,2.7-1.2,2.7-2.7S181.5,140.6,180,140.6L180,140.6L180,140.6z
		 M180,121.6h-75.5c-1.5,0-2.7,1.2-2.7,2.7s1.2,2.7,2.7,2.7l0,0H180c1.5,0,2.7-1.2,2.7-2.7C182.7,122.8,181.5,121.6,180,121.6
		L180,121.6L180,121.6z M180,159.6h-51.2c-1.5,0-2.7,1.2-2.7,2.7s1.2,2.7,2.7,2.7H180c1.5,0,2.7-1.2,2.7-2.7S181.5,159.6,180,159.6
		L180,159.6L180,159.6z M180,178.6h-48c-1.5,0-2.7,1.2-2.7,2.7s1.2,2.7,2.7,2.7l0,0h48c1.5,0,2.7-1.2,2.7-2.7S181.5,178.6,180,178.6
		L180,178.6L180,178.6z M54.2,139.6c-0.5,0-0.9,0-1.4,0c-1.5,0.1-2.6,1.3-2.5,2.8c0.1,1.4,1.3,2.5,2.7,2.5c0.4,0,0.8,0,1.2,0
		c20.2,0.1,36.7,16.2,37.2,36.4c0,1.5,1.2,2.6,2.7,2.6h0.1c1.5,0,2.7-1.3,2.6-2.7C96.3,158.1,77.4,139.6,54.2,139.6z M54.8,121.5
		c-0.6,0-1.2,0-1.9,0c-1.5,0.1-2.6,1.3-2.5,2.8c0.1,1.4,1.3,2.5,2.7,2.5c0.7,0,1.2,0,1.8,0c30.2,0.2,54.9,24.3,55.7,54.5
		c0,1.5,1.2,2.6,2.7,2.6h0.1c1.5,0,2.7-1.3,2.6-2.7C115.1,148,88,121.5,54.8,121.5L54.8,121.5z"/>
	<path d="M180,184.2h-48c-1.6,0-3-1.3-3-3s1.3-3,3-3h48c1.6,0,3,1.3,3,3S181.6,184.2,180,184.2z M132,178.8c-1.4,0-2.5,1.1-2.5,2.5
		s1.1,2.5,2.5,2.5h48c1.4,0,2.5-1.1,2.5-2.5s-1.1-2.5-2.5-2.5H132z M74.6,184.2h-0.1c-1.6,0-2.8-1.2-2.9-2.8
		c-0.3-9.8-8.2-17.5-18-17.6H53c-0.8-0.1-1.5-0.4-2-1c-0.5-0.6-0.8-1.4-0.7-2.2c0.1-1.4,1.1-2.5,2.5-2.7l0.7,0
		c6.3,0,12.2,2.4,16.8,6.9c4.4,4.3,7,10.2,7.2,16.5C77.5,183,76.2,184.2,74.6,184.2z M53.6,163.3c10,0.1,18.1,8,18.4,18
		c0.1,1.3,1.1,2.4,2.5,2.4h0.1c1.3,0,2.4-1.1,2.4-2.5c-0.2-6.2-2.7-11.9-7-16.1c-4.4-4.3-10.3-6.7-16.4-6.7h-0.7
		c-1.1,0.2-2,1.1-2.1,2.3c0,0.7,0.2,1.3,0.6,1.8c0.4,0.5,1,0.8,1.7,0.8L53.6,163.3z M113.4,184.2h-0.1c-1.7,0-2.9-1.3-2.9-2.9
		c-0.4-14.5-6.3-28.1-16.8-38.3c-10.4-10.2-24.2-15.8-38.7-15.9h-1.8c-1.5,0-2.8-1.2-2.9-2.7c-0.1-0.8,0.2-1.5,0.7-2.1
		c0.5-0.6,1.2-0.9,2-1l1.9,0c16.1,0,31.3,6.2,42.9,17.5c11.5,11.3,18.1,26.3,18.6,42.5c0.1,0.7-0.2,1.5-0.7,2
		C115,183.8,114.2,184.2,113.4,184.2z M52.9,121.8c-0.6,0-1.2,0.3-1.7,0.8c-0.4,0.5-0.6,1.1-0.6,1.7c0.1,1.3,1.2,2.3,2.5,2.3h1.8
		c14.7,0.1,28.5,5.8,39,16.1c10.5,10.3,16.5,24,16.9,38.7c0,1.3,1.1,2.4,2.4,2.4h0.1c0.6,0,1.3-0.3,1.7-0.8c0.4-0.5,0.7-1.1,0.6-1.7
		c-0.4-16-7-31-18.4-42.1c-11.4-11.2-26.6-17.3-42.5-17.3H52.9z M94.2,184.2h-0.1c-1.7,0-3-1.3-3-2.9c-0.2-9.7-4.2-18.8-11.1-25.6
		c-6.9-6.8-16.1-10.5-25.8-10.6H53c-1.5,0-2.8-1.2-2.9-2.7c-0.1-1.6,1.1-3,2.7-3.1l1.4,0c11.3,0,21.9,4.3,30,12.2
		c8.1,7.9,12.6,18.4,12.9,29.6c0.1,0.7-0.2,1.5-0.7,2C95.8,183.8,95,184.2,94.2,184.2z M52.8,139.8c-1.4,0.1-2.3,1.2-2.3,2.5
		c0.1,1.3,1.2,2.3,2.5,2.3h1.2c9.8,0,19.1,3.9,26.2,10.7c7,6.9,11,16.1,11.3,25.9c0,1.3,1.1,2.4,2.5,2.4h0.1c0.6,0,1.3-0.3,1.7-0.8
		c0.4-0.5,0.7-1.1,0.6-1.7c-0.2-11.1-4.8-21.5-12.7-29.3c-8-7.8-18.5-12.1-29.6-12.1H52.8z M180,165.2h-51.2c-1.6,0-3-1.3-3-3
		s1.3-3,3-3H180c1.6,0,3,1.3,3,3S181.6,165.2,180,165.2z M128.8,159.8c-1.4,0-2.5,1.1-2.5,2.5s1.1,2.5,2.5,2.5H180
		c1.4,0,2.5-1.1,2.5-2.5s-1.1-2.5-2.5-2.5H128.8z M180,146.2h-59.5c-1.6,0-3-1.3-3-3s1.3-3,3-3H180c1.6,0,3,1.3,3,3
		S181.6,146.2,180,146.2z M120.5,140.8c-1.4,0-2.5,1.1-2.5,2.5s1.1,2.5,2.5,2.5H180c1.4,0,2.5-1.1,2.5-2.5s-1.1-2.5-2.5-2.5H120.5z
		 M180,127.2h-75.5c-1.6,0-3-1.3-3-3s1.3-3,3-3H180c1.6,0,3,1.3,3,3S181.6,127.2,180,127.2z M104.5,121.8c-1.4,0-2.5,1.1-2.5,2.5
		s1.1,2.5,2.5,2.5H180c1.4,0,2.5-1.1,2.5-2.5s-1.1-2.5-2.5-2.5H104.5z M180,108.2h-22.1c-0.9,0-1.7-0.4-2.3-1.1
		c-1.2-1.5-2.8-2.4-4.7-2.6c-1.8-0.2-3.6,0.3-5.1,1.5c-0.4,0.3-0.8,0.7-1.1,1.1c-0.6,0.7-1.4,1.1-2.3,1.1H53c-1.7-0.1-3-1.4-3-3
		c0-1.6,1.3-3,3-3h88.3c1.7-1.7,3.8-2.8,6.1-3.4V94c-1.7-0.4-3.2-1.1-4.5-2.1c-2.6,1.9-5.7,2.7-9,2.3c-3.3-0.4-6.2-2.1-8.2-4.8
		c-2-2.6-2.9-5.8-2.4-9.1c0.4-3.3,2.1-6.2,4.8-8.2c0.4-0.3,0.7-0.5,1.2-0.8c-1-6.2,2.7-12.2,8.7-13.9c0.5-6.7,6.3-11.9,13-11.6
		c6.2,0.3,11.3,5.4,11.7,11.6c6,1.8,9.8,7.7,8.7,14c2.8,1.7,4.8,4.3,5.6,7.5c0.9,3.2,0.4,6.5-1.3,9.4c-1.7,2.9-4.4,4.9-7.6,5.8
		c-3.2,0.9-6.5,0.4-9.4-1.3c-0.2-0.2-0.4-0.3-0.6-0.4c-0.2-0.1-0.4-0.2-0.5-0.3c-1.3,1-2.8,1.7-4.5,2.1V99c2.2,0.5,4.4,1.7,6.1,3.3
		H180c1.6,0,3,1.3,3,2.9C183,106.9,181.6,108.2,180,108.2z M53,102.8c-1.4,0-2.5,1.1-2.5,2.5c0,1.3,1.1,2.5,2.5,2.6l89.5,0
		c0.7,0,1.4-0.3,1.9-0.9c0.3-0.4,0.7-0.8,1.1-1.1c1.5-1.2,3.5-1.8,5.5-1.6c2,0.2,3.7,1.2,5,2.7c0.5,0.6,1.2,0.9,1.9,0.9H180
		c1.4,0,2.5-1.1,2.5-2.5c0-1.4-1.1-2.4-2.5-2.4h-20.9l-0.1-0.1c-1.7-1.7-3.8-2.8-6.1-3.3l-0.2,0v-5.7l0.2,0c1.8-0.4,3.3-1.1,4.6-2.2
		l0.2-0.1l0.2,0.1c0.2,0.1,0.4,0.3,0.6,0.4c0.2,0.1,0.5,0.3,0.7,0.4c2.7,1.6,5.9,2,9,1.2c3.1-0.8,5.6-2.8,7.2-5.5
		c1.6-2.7,2-5.9,1.2-9c-0.8-3.1-2.8-5.6-5.5-7.2l-0.2-0.1l0-0.2c1.1-6.1-2.6-12-8.5-13.6l-0.2,0l0-0.2c-0.3-6-5.2-11-11.3-11.3
		c-6.6-0.3-12.2,4.8-12.5,11.3l0,0.2l-0.2,0c-5.9,1.7-9.6,7.5-8.5,13.6l0,0.2l-0.2,0.1c-0.5,0.2-0.9,0.5-1.2,0.8
		c-2.5,1.9-4.2,4.7-4.6,7.9c-0.4,3.2,0.4,6.3,2.3,8.8c1.9,2.5,4.7,4.2,7.9,4.6c3.2,0.4,6.3-0.4,8.8-2.3l0.2-0.1l0.2,0.1
		c1.3,1,2.8,1.7,4.6,2.2l0.2,0v5.7l-0.2,0c-2.3,0.5-4.4,1.6-6.1,3.3l-0.1,0.1H53z M112.7,89.1H51c-1.6,0-3-1.3-3-2.9
		c0-1.6,1.3-3,3-3h61.7c1.6,0,2.9,1.3,2.9,3C115.6,87.8,114.3,89.1,112.7,89.1z M51,83.8c-1.4,0-2.5,1.1-2.5,2.5
		c0,1.4,1.1,2.4,2.5,2.4h61.7c1.4,0,2.4-1.1,2.4-2.4c0-1.4-1.1-2.5-2.4-2.5H51z M135.5,89.1c-1.1,0-2.2-0.3-3.1-0.8
		c-1.7-0.9-2.9-2.3-3.5-4.2c-0.6-1.8-0.5-3.7,0.4-5.4c0.9-1.7,2.3-2.9,4.1-3.4c0.1,0,0.1-0.1,0.3-0.1c1.2-0.6,1.8-2,1.2-3.2
		c-0.3-0.8-0.5-1.6-0.5-2.4c-0.2-3.8,2.8-7.1,6.6-7.3l0.3,0c1.3-0.3,2.1-1.4,2-2.8c-0.1-0.4-0.1-0.8-0.1-1.2c0-4,3.1-7,7-7
		c3.9,0,7,3.2,7,7c0,0.3,0,0.7-0.1,1.2l0,0.2c0,0.7,0.2,1.3,0.6,1.8c0.4,0.5,1,0.7,1.7,0.8c0,0,0,0,0,0c0.8,0,1.6,0.2,2.4,0.5
		c3.6,1.6,5.3,5.7,3.7,9.2l-0.1,0.2c-0.4,1.4,0.3,2.7,1.6,3.1c1.4,0.4,2.6,1.2,3.4,2.3c1.2,1.4,1.7,3.3,1.5,5.1
		c-0.2,1.9-1.1,3.6-2.6,4.7c-1.4,1.2-3.3,1.7-5.1,1.5c-1.9-0.2-3.6-1.1-4.7-2.6c-0.1-0.1-0.2-0.2-0.2-0.3c-0.1,0-0.1-0.1-0.1-0.1
		c-1.1-0.8-2.6-0.6-3.4,0.4c-0.7,0.9-1.7,1.7-2.7,2.1l-0.3,0.1v-8.5c0-1.4-1.1-2.5-2.5-2.5s-2.5,1.1-2.5,2.5v8.5l-0.4-0.2
		c-1.2-0.6-2-1.2-2.6-2c-0.1-0.1-0.2-0.2-0.2-0.3c-0.1,0-0.1-0.1-0.1-0.1c-1.1-0.8-2.6-0.6-3.4,0.4c-1,1.1-2.2,1.9-3.4,2.3
		C136.9,89,136.2,89.1,135.5,89.1z M133.7,75.8l-0.1,0.1c-1.7,0.5-3.1,1.7-3.9,3.2c-0.8,1.5-0.9,3.3-0.4,5c0.5,1.7,1.7,3.1,3.2,3.9
		c1.5,0.8,3.3,0.9,5,0.4c1.2-0.4,2.2-1.1,3.2-2.1c1-1.2,2.8-1.4,4.1-0.4c0.1,0,0.1,0.1,0.1,0.1c0.1,0.1,0.3,0.2,0.4,0.4
		c0.4,0.6,1.1,1.1,2,1.6v-7.7c0-1.6,1.3-3,3-3s3,1.3,3,3v7.7c0.8-0.4,1.6-1,2.2-1.8c1-1.2,2.9-1.4,4.1-0.4c0,0,0.1,0.1,0.1,0.1
		c0.1,0.1,0.3,0.2,0.4,0.4c1.1,1.3,2.6,2.2,4.4,2.4c1.7,0.2,3.4-0.3,4.8-1.4c1.4-1.1,2.2-2.6,2.4-4.4c0.2-1.7-0.3-3.4-1.4-4.8
		c-0.8-1-1.9-1.7-3.2-2.1c-1.5-0.4-2.4-2-2-3.7c0-0.1,0.1-0.2,0.1-0.3c1.4-3.3-0.1-7.1-3.5-8.5c-0.7-0.3-1.5-0.5-2.2-0.5
		c-0.8-0.1-1.5-0.4-2-1c-0.5-0.6-0.8-1.3-0.7-2.1l0-0.3c0.1-0.4,0.1-0.8,0.1-1.1c0-3.6-2.9-6.5-6.5-6.5c-3.7,0-6.5,2.9-6.5,6.5
		c0,0.4,0,0.8,0.1,1.1c0.2,1.7-0.8,3.1-2.4,3.4l-0.3,0c-3.6,0.2-6.3,3.3-6.2,6.8c0,0.7,0.2,1.5,0.5,2.2c0.6,1.5,0,3.1-1.5,3.8
		L133.7,75.8z M135.6,85.4c-1.6,0-2.9-1.3-2.9-3v-0.6c0-1.6,1.3-2.9,2.9-2.9c1.6,0,3,1.3,3,2.9v0.6C138.5,84,137.2,85.4,135.6,85.4z
		 M135.6,79.4c-1.4,0-2.4,1.1-2.4,2.4v0.6c0,1.4,1.1,2.5,2.4,2.5s2.5-1.1,2.5-2.5v-0.6C138,80.4,137,79.4,135.6,79.4z M158.9,73
		c-1.5,0-2.8-1.3-2.9-2.9l0-0.6c0-1.6,1.3-3,3-3c1.6,0,2.9,1.3,2.9,3v0.6C161.8,71.7,160.5,73,158.9,73z M158.9,67
		c-1.4,0-2.5,1.1-2.5,2.5v0.6c0.1,1.3,1.2,2.4,2.5,2.4c1.4,0,2.4-1.1,2.4-2.4v-0.6C161.3,68.1,160.3,67,158.9,67z M117.3,70.1H51
		c-1.6,0-3-1.3-3-2.9c0-1.6,1.3-3,3-3h66.3c1.6,0,3,1.3,3,3C120.2,68.8,118.9,70.1,117.3,70.1z M51,64.8c-1.4,0-2.5,1.1-2.5,2.5
		c0,1.4,1.1,2.4,2.5,2.4h66.3c1.4,0,2.5-1.1,2.5-2.4c0-1.4-1.1-2.5-2.5-2.5H51z"/>
</g>
</svg>
